M48
INCH
T01C0.035
T02C0.0354
T03C0.043
T04C0.052
T05C0.052
T06C0.2598
%
T01
X+011190Y+004940
T02
X+010190Y+005940
X+011190Y+005940
X+012190Y+005940
X+012190Y+004940
X+010190Y+004940
T03
X+017690Y+011190
X+017690Y+010190
X+017690Y+009190
X+004690Y+009190
X+004690Y+010190
X+004690Y+011190
T04
X+010190Y+012940
X+011190Y+012940
X+012190Y+012940
X+012190Y+013940
X+010190Y+013940
T05
X+011190Y+013940
T06
X+015127Y+010190
X+007253Y+010190
T00
M30
